<svg width="30" height="30" viewBox="0 0 30 30" fill="none" xmlns="http://www.w3.org/2000/svg">
<path d="M14.6866 0.70805C8.84161 0.883249 4.33594 5.98237 4.33594 11.8296V26.5085C4.33594 27.3016 5.29425 27.6981 5.85489 27.1375L7.2409 26.1069C7.61132 25.8316 8.1308 25.885 8.43726 26.2298L10.8261 28.919C11.1737 29.2666 11.7371 29.2666 12.0847 28.919L14.3495 26.3689C14.7038 25.9701 15.3262 25.9701 15.6799 26.3689L17.9447 28.919C18.2923 29.2666 18.8558 29.2666 19.2034 28.919L21.5922 26.2298C21.8987 25.885 22.4181 25.831 22.7886 26.1069L24.1746 27.1375C24.7352 27.6981 25.6935 27.301 25.6935 26.5085V11.3818C25.6935 5.37502 20.734 0.526733 14.6866 0.70805ZM11.4551 13.1616C10.4724 13.1616 9.67534 12.3646 9.67534 11.3818C9.67534 10.3991 10.4724 9.60204 11.4551 9.60204C12.4379 9.60204 13.2349 10.3991 13.2349 11.3818C13.2349 12.3646 12.4379 13.1616 11.4551 13.1616ZM18.5743 13.1616C17.5916 13.1616 16.7945 12.3646 16.7945 11.3818C16.7945 10.3991 17.5916 9.60204 18.5743 9.60204C19.5571 9.60204 20.3541 10.3991 20.3541 11.3818C20.3541 12.3646 19.5571 13.1616 18.5743 13.1616Z" stroke="#DF740C" stroke-width="1.17188"/>
</svg>
