<svg width="256" height="256" viewBox="0 0 256 256" fill="none" xmlns="http://www.w3.org/2000/svg">
<path d="M125.326 6.04203C75.4484 7.53706 37 51.0496 37 100.946V226.206C37 232.974 45.1776 236.357 49.9617 231.573L61.789 222.779C64.95 220.429 69.3829 220.885 71.998 223.828L92.3826 246.775C95.349 249.742 100.157 249.742 103.123 246.775L122.449 225.014C125.473 221.611 130.784 221.611 133.802 225.014L153.128 246.775C156.095 249.742 160.903 249.742 163.869 246.775L184.254 223.828C186.869 220.885 191.301 220.425 194.462 222.779L206.29 231.573C211.074 236.357 219.251 232.969 219.251 226.206V97.125C219.251 45.8668 176.93 4.49479 125.326 6.04203ZM97.7505 112.313C89.3641 112.313 82.5629 105.511 82.5629 97.125C82.5629 88.7386 89.3641 81.9374 97.7505 81.9374C106.137 81.9374 112.938 88.7386 112.938 97.125C112.938 105.511 106.137 112.313 97.7505 112.313ZM158.501 112.313C150.115 112.313 143.313 105.511 143.313 97.125C143.313 88.7386 150.115 81.9374 158.501 81.9374C166.887 81.9374 173.689 88.7386 173.689 97.125C173.689 105.511 166.887 112.313 158.501 112.313Z" stroke="#DF740C" stroke-width="10"/>
</svg>
